<?xml version="1.0" encoding="UTF-8" standalone="no"?>
<!-- Created with Inkscape (http://www.inkscape.org/) -->

<svg
   xmlns:dc="http://purl.org/dc/elements/1.1/"
   xmlns:cc="http://creativecommons.org/ns#"
   xmlns:rdf="http://www.w3.org/1999/02/22-rdf-syntax-ns#"
   xmlns:svg="http://www.w3.org/2000/svg"
   xmlns="http://www.w3.org/2000/svg"
   xmlns:sodipodi="http://sodipodi.sourceforge.net/DTD/sodipodi-0.dtd"
   xmlns:inkscape="http://www.inkscape.org/namespaces/inkscape"
   width="512.01282"
   height="369.50262"
   id="svg3281"
   version="1.1"
   inkscape:version="0.92.2 (5c3e80d, 2017-08-06)"
   sodipodi:docname="guide-fragment-shader-1.svg">
  <defs
     id="defs3283">
    <style
       type="text/css"
       id="style2">@import 'svg-styles.css';</style>
  </defs>
  <sodipodi:namedview
     id="base"
     pagecolor="#ffffff"
     bordercolor="#666666"
     borderopacity="1.0"
     inkscape:pageopacity="0.0"
     inkscape:pageshadow="2"
     inkscape:zoom="5.6"
     inkscape:cx="159.50979"
     inkscape:cy="130.64684"
     inkscape:document-units="px"
     inkscape:current-layer="layer1"
     showgrid="false"
     fit-margin-left="10"
     fit-margin-top="10"
     fit-margin-right="10"
     fit-margin-bottom="10"
     inkscape:window-width="3840"
     inkscape:window-height="2031"
     inkscape:window-x="0"
     inkscape:window-y="55"
     inkscape:window-maximized="1" />
  <metadata
     id="metadata3286">
    <rdf:RDF>
      <cc:Work
         rdf:about="">
        <dc:format>image/svg+xml</dc:format>
        <dc:type
           rdf:resource="http://purl.org/dc/dcmitype/StillImage" />
        <dc:title />
      </cc:Work>
    </rdf:RDF>
  </metadata>
  <g
     inkscape:label="Calque 1"
     inkscape:groupmode="layer"
     id="layer1"
     transform="translate(-90.354446,-277.19701)">
    <rect
       style="color:#000000;fill:#ffffff;fill-opacity:1;fill-rule:nonzero;stroke:#646464;stroke-width:4;stroke-linecap:butt;stroke-linejoin:miter;stroke-miterlimit:4;stroke-opacity:1;stroke-dasharray:none;stroke-dashoffset:0;marker:none;visibility:visible;display:inline;overflow:visible;enable-background:accumulate"
       id="rect4059"
       width="314.15744"
       height="314.15744"
       x="187.88837"
       y="303.83914" />
    <path
       style="fill:none;stroke:#b90000;stroke-width:1;stroke-linecap:butt;stroke-linejoin:miter;stroke-opacity:1;fill-opacity:1;stroke-miterlimit:4;stroke-dasharray:1,2;stroke-dashoffset:0"
       d="M 166,91.359767 249.57143,274.50262 344.71429,159.64548 z"
       id="path4165"
       inkscape:connector-curvature="0"
       sodipodi:nodetypes="cccc"
       transform="translate(90.354446,277.19701)" />
    <path
       style="fill:#646464;fill-opacity:1;stroke:#646464;stroke-width:1px;stroke-linecap:butt;stroke-linejoin:miter;stroke-opacity:1"
       d="m 188.33924,314.44067 313.65237,0"
       id="path4792"
       inkscape:connector-curvature="0"
       sodipodi:nodetypes="cc" />
    <path
       style="fill:#646464;fill-opacity:1;stroke:#646464;stroke-width:1px;stroke-linecap:butt;stroke-linejoin:miter;stroke-opacity:1"
       d="m 188.33924,327.69205 313.65237,0"
       id="path4792-7"
       inkscape:connector-curvature="0"
       sodipodi:nodetypes="cc" />
    <path
       style="fill:#646464;fill-opacity:1;stroke:#646464;stroke-width:1px;stroke-linecap:butt;stroke-linejoin:miter;stroke-opacity:1"
       d="m 188.33924,340.94343 313.65237,0"
       id="path4792-1"
       inkscape:connector-curvature="0"
       sodipodi:nodetypes="cc" />
    <path
       style="fill:#646464;fill-opacity:1;stroke:#646464;stroke-width:1px;stroke-linecap:butt;stroke-linejoin:miter;stroke-opacity:1"
       d="m 188.33924,354.19482 313.65237,0"
       id="path4792-7-7"
       inkscape:connector-curvature="0"
       sodipodi:nodetypes="cc" />
    <path
       style="fill:#646464;fill-opacity:1;stroke:#646464;stroke-width:1px;stroke-linecap:butt;stroke-linejoin:miter;stroke-opacity:1"
       d="m 189.09685,367.44619 313.65238,0"
       id="path4792-77"
       inkscape:connector-curvature="0"
       sodipodi:nodetypes="cc" />
    <path
       style="fill:#646464;fill-opacity:1;stroke:#646464;stroke-width:1px;stroke-linecap:butt;stroke-linejoin:miter;stroke-opacity:1"
       d="m 189.09685,380.69757 313.65238,0"
       id="path4792-7-73"
       inkscape:connector-curvature="0"
       sodipodi:nodetypes="cc" />
    <path
       style="fill:#646464;fill-opacity:1;stroke:#646464;stroke-width:1px;stroke-linecap:butt;stroke-linejoin:miter;stroke-opacity:1"
       d="m 189.09685,393.94896 313.65238,0"
       id="path4792-1-3"
       inkscape:connector-curvature="0"
       sodipodi:nodetypes="cc" />
    <path
       style="fill:#646464;fill-opacity:1;stroke:#646464;stroke-width:1px;stroke-linecap:butt;stroke-linejoin:miter;stroke-opacity:1"
       d="m 189.09685,407.20035 313.65238,0"
       id="path4792-7-7-5"
       inkscape:connector-curvature="0"
       sodipodi:nodetypes="cc" />
    <path
       style="fill:#646464;fill-opacity:1;stroke:#646464;stroke-width:1px;stroke-linecap:butt;stroke-linejoin:miter;stroke-opacity:1"
       d="m 186.06639,420.45173 313.65237,0"
       id="path4792-9"
       inkscape:connector-curvature="0"
       sodipodi:nodetypes="cc" />
    <path
       style="fill:#646464;fill-opacity:1;stroke:#646464;stroke-width:1px;stroke-linecap:butt;stroke-linejoin:miter;stroke-opacity:1"
       d="m 186.06639,433.70311 313.65237,0"
       id="path4792-7-9"
       inkscape:connector-curvature="0"
       sodipodi:nodetypes="cc" />
    <path
       style="fill:#646464;fill-opacity:1;stroke:#646464;stroke-width:1px;stroke-linecap:butt;stroke-linejoin:miter;stroke-opacity:1"
       d="m 186.06639,446.9545 313.65237,0"
       id="path4792-1-8"
       inkscape:connector-curvature="0"
       sodipodi:nodetypes="cc" />
    <path
       style="fill:#646464;fill-opacity:1;stroke:#646464;stroke-width:1px;stroke-linecap:butt;stroke-linejoin:miter;stroke-opacity:1"
       d="m 186.06639,460.20588 313.65237,0"
       id="path4792-7-7-1"
       inkscape:connector-curvature="0"
       sodipodi:nodetypes="cc" />
    <path
       style="fill:#646464;fill-opacity:1;stroke:#646464;stroke-width:1px;stroke-linecap:butt;stroke-linejoin:miter;stroke-opacity:1"
       d="m 187.07655,473.45726 313.65237,0"
       id="path4792-8"
       inkscape:connector-curvature="0"
       sodipodi:nodetypes="cc" />
    <path
       style="fill:#646464;fill-opacity:1;stroke:#646464;stroke-width:1px;stroke-linecap:butt;stroke-linejoin:miter;stroke-opacity:1"
       d="m 187.07655,486.70865 313.65237,0"
       id="path4792-7-2"
       inkscape:connector-curvature="0"
       sodipodi:nodetypes="cc" />
    <path
       style="fill:#646464;fill-opacity:1;stroke:#646464;stroke-width:1px;stroke-linecap:butt;stroke-linejoin:miter;stroke-opacity:1"
       d="m 187.07655,499.96003 313.65237,0"
       id="path4792-1-6"
       inkscape:connector-curvature="0"
       sodipodi:nodetypes="cc" />
    <path
       style="fill:#646464;fill-opacity:1;stroke:#646464;stroke-width:1px;stroke-linecap:butt;stroke-linejoin:miter;stroke-opacity:1"
       d="m 187.07655,513.21141 313.65237,0"
       id="path4792-7-7-6"
       inkscape:connector-curvature="0"
       sodipodi:nodetypes="cc" />
    <path
       style="fill:#646464;fill-opacity:1;stroke:#646464;stroke-width:1px;stroke-linecap:butt;stroke-linejoin:miter;stroke-opacity:1"
       d="m 189.09685,526.46279 313.65238,0"
       id="path4792-0"
       inkscape:connector-curvature="0"
       sodipodi:nodetypes="cc" />
    <path
       style="fill:#646464;fill-opacity:1;stroke:#646464;stroke-width:1px;stroke-linecap:butt;stroke-linejoin:miter;stroke-opacity:1"
       d="m 189.09685,539.71418 313.65238,0"
       id="path4792-7-3"
       inkscape:connector-curvature="0"
       sodipodi:nodetypes="cc" />
    <path
       style="fill:#646464;fill-opacity:1;stroke:#646464;stroke-width:1px;stroke-linecap:butt;stroke-linejoin:miter;stroke-opacity:1"
       d="m 189.09685,566.21695 313.65238,0"
       id="path4792-7-7-12"
       inkscape:connector-curvature="0"
       sodipodi:nodetypes="cc" />
    <path
       style="fill:#646464;fill-opacity:1;stroke:#646464;stroke-width:1px;stroke-linecap:butt;stroke-linejoin:miter;stroke-opacity:1"
       d="m 186.57148,579.46833 313.65237,0"
       id="path4792-5"
       inkscape:connector-curvature="0"
       sodipodi:nodetypes="cc" />
    <path
       style="fill:#646464;fill-opacity:1;stroke:#646464;stroke-width:1px;stroke-linecap:butt;stroke-linejoin:miter;stroke-opacity:1"
       d="m 186.57148,592.71971 313.65237,0"
       id="path4792-7-0"
       inkscape:connector-curvature="0"
       sodipodi:nodetypes="cc" />
    <path
       style="fill:#646464;fill-opacity:1;stroke:#646464;stroke-width:1px;stroke-linecap:butt;stroke-linejoin:miter;stroke-opacity:1"
       d="m 186.57148,605.97109 313.65237,0"
       id="path4792-1-9"
       inkscape:connector-curvature="0"
       sodipodi:nodetypes="cc" />
    <path
       style="fill:#646464;fill-opacity:1;stroke:#646464;stroke-width:1px;stroke-linecap:butt;stroke-linejoin:miter;stroke-opacity:1"
       d="m 490.17302,304.13731 0,313.65237"
       id="path4792-78"
       inkscape:connector-curvature="0"
       sodipodi:nodetypes="cc" />
    <path
       style="fill:#646464;fill-opacity:1;stroke:#646464;stroke-width:1px;stroke-linecap:butt;stroke-linejoin:miter;stroke-opacity:1"
       d="m 476.92164,304.13731 0,313.65237"
       id="path4792-7-35"
       inkscape:connector-curvature="0"
       sodipodi:nodetypes="cc" />
    <path
       style="fill:#646464;fill-opacity:1;stroke:#646464;stroke-width:1px;stroke-linecap:butt;stroke-linejoin:miter;stroke-opacity:1"
       d="m 463.67026,304.13731 0,313.65237"
       id="path4792-1-1"
       inkscape:connector-curvature="0"
       sodipodi:nodetypes="cc" />
    <path
       style="fill:#646464;fill-opacity:1;stroke:#646464;stroke-width:1px;stroke-linecap:butt;stroke-linejoin:miter;stroke-opacity:1"
       d="m 450.41887,304.13731 0,313.65237"
       id="path4792-7-7-2"
       inkscape:connector-curvature="0"
       sodipodi:nodetypes="cc" />
    <path
       style="fill:#646464;fill-opacity:1;stroke:#646464;stroke-width:1px;stroke-linecap:butt;stroke-linejoin:miter;stroke-opacity:1"
       d="m 437.1675,304.89492 0,313.65238"
       id="path4792-77-0"
       inkscape:connector-curvature="0"
       sodipodi:nodetypes="cc" />
    <path
       style="fill:#646464;fill-opacity:1;stroke:#646464;stroke-width:1px;stroke-linecap:butt;stroke-linejoin:miter;stroke-opacity:1"
       d="m 423.91612,304.89492 0,313.65238"
       id="path4792-7-73-1"
       inkscape:connector-curvature="0"
       sodipodi:nodetypes="cc" />
    <path
       style="fill:#646464;fill-opacity:1;stroke:#646464;stroke-width:1px;stroke-linecap:butt;stroke-linejoin:miter;stroke-opacity:1"
       d="m 410.66473,304.89492 0,313.65238"
       id="path4792-1-3-6"
       inkscape:connector-curvature="0"
       sodipodi:nodetypes="cc" />
    <path
       style="fill:#646464;fill-opacity:1;stroke:#646464;stroke-width:1px;stroke-linecap:butt;stroke-linejoin:miter;stroke-opacity:1"
       d="m 397.41334,304.89492 0,313.65238"
       id="path4792-7-7-5-4"
       inkscape:connector-curvature="0"
       sodipodi:nodetypes="cc" />
    <path
       style="fill:#646464;fill-opacity:1;stroke:#646464;stroke-width:1px;stroke-linecap:butt;stroke-linejoin:miter;stroke-opacity:1"
       d="m 384.16196,301.86446 0,313.65237"
       id="path4792-9-0"
       inkscape:connector-curvature="0"
       sodipodi:nodetypes="cc" />
    <path
       style="fill:#646464;fill-opacity:1;stroke:#646464;stroke-width:1px;stroke-linecap:butt;stroke-linejoin:miter;stroke-opacity:1"
       d="m 370.91058,301.86446 0,313.65237"
       id="path4792-7-9-6"
       inkscape:connector-curvature="0"
       sodipodi:nodetypes="cc" />
    <path
       style="fill:#646464;fill-opacity:1;stroke:#646464;stroke-width:1px;stroke-linecap:butt;stroke-linejoin:miter;stroke-opacity:1"
       d="m 357.65919,301.86446 0,313.65237"
       id="path4792-1-8-1"
       inkscape:connector-curvature="0"
       sodipodi:nodetypes="cc" />
    <path
       style="fill:#646464;fill-opacity:1;stroke:#646464;stroke-width:1px;stroke-linecap:butt;stroke-linejoin:miter;stroke-opacity:1"
       d="m 344.40781,301.86446 0,313.65237"
       id="path4792-7-7-1-8"
       inkscape:connector-curvature="0"
       sodipodi:nodetypes="cc" />
    <path
       style="fill:#646464;fill-opacity:1;stroke:#646464;stroke-width:1px;stroke-linecap:butt;stroke-linejoin:miter;stroke-opacity:1"
       d="m 331.15643,302.87462 0,313.65237"
       id="path4792-8-9"
       inkscape:connector-curvature="0"
       sodipodi:nodetypes="cc" />
    <path
       style="fill:#646464;fill-opacity:1;stroke:#646464;stroke-width:1px;stroke-linecap:butt;stroke-linejoin:miter;stroke-opacity:1"
       d="m 317.90504,302.87462 0,313.65237"
       id="path4792-7-2-8"
       inkscape:connector-curvature="0"
       sodipodi:nodetypes="cc" />
    <path
       style="fill:#646464;fill-opacity:1;stroke:#646464;stroke-width:1px;stroke-linecap:butt;stroke-linejoin:miter;stroke-opacity:1"
       d="m 304.65366,302.87462 0,313.65237"
       id="path4792-1-6-4"
       inkscape:connector-curvature="0"
       sodipodi:nodetypes="cc" />
    <path
       style="fill:#646464;fill-opacity:1;stroke:#646464;stroke-width:1px;stroke-linecap:butt;stroke-linejoin:miter;stroke-opacity:1"
       d="m 291.40228,302.87462 0,313.65237"
       id="path4792-7-7-6-1"
       inkscape:connector-curvature="0"
       sodipodi:nodetypes="cc" />
    <path
       style="fill:#646464;fill-opacity:1;stroke:#646464;stroke-width:1px;stroke-linecap:butt;stroke-linejoin:miter;stroke-opacity:1"
       d="m 278.1509,304.89492 0,313.65238"
       id="path4792-0-4"
       inkscape:connector-curvature="0"
       sodipodi:nodetypes="cc" />
    <path
       style="fill:#646464;fill-opacity:1;stroke:#646464;stroke-width:1px;stroke-linecap:butt;stroke-linejoin:miter;stroke-opacity:1"
       d="m 264.89951,304.89492 0,313.65238"
       id="path4792-7-3-3"
       inkscape:connector-curvature="0"
       sodipodi:nodetypes="cc" />
    <path
       style="fill:#646464;fill-opacity:1;stroke:#646464;stroke-width:1px;stroke-linecap:butt;stroke-linejoin:miter;stroke-opacity:1"
       d="m 251.64813,304.89492 0,313.65238"
       id="path4792-1-80-9"
       inkscape:connector-curvature="0"
       sodipodi:nodetypes="cc" />
    <path
       style="fill:#646464;fill-opacity:1;stroke:#646464;stroke-width:1px;stroke-linecap:butt;stroke-linejoin:miter;stroke-opacity:1"
       d="m 238.39674,304.89492 0,313.65238"
       id="path4792-7-7-12-8"
       inkscape:connector-curvature="0"
       sodipodi:nodetypes="cc" />
    <path
       style="fill:#646464;fill-opacity:1;stroke:#646464;stroke-width:1px;stroke-linecap:butt;stroke-linejoin:miter;stroke-opacity:1"
       d="m 225.14536,302.36955 0,313.65237"
       id="path4792-5-8"
       inkscape:connector-curvature="0"
       sodipodi:nodetypes="cc" />
    <path
       style="fill:#646464;fill-opacity:1;stroke:#646464;stroke-width:1px;stroke-linecap:butt;stroke-linejoin:miter;stroke-opacity:1"
       d="m 211.89398,302.36955 0,313.65237"
       id="path4792-7-0-0"
       inkscape:connector-curvature="0"
       sodipodi:nodetypes="cc" />
    <path
       style="fill:#646464;fill-opacity:1;stroke:#646464;stroke-width:1px;stroke-linecap:butt;stroke-linejoin:miter;stroke-opacity:1"
       d="m 198.6426,302.36955 0,313.65237"
       id="path4792-1-9-8"
       inkscape:connector-curvature="0"
       sodipodi:nodetypes="cc" />
    <path
       style="color:#000000;fill:#b90000;stroke:none;stroke-width:0.17857143000000000;stroke-linecap:butt;stroke-linejoin:miter;stroke-miterlimit:4;stroke-opacity:1;stroke-dasharray:0.17857143000000000, 0.35714286000000001;stroke-dashoffset:0;marker:none;visibility:visible;display:inline;overflow:visible;enable-background:accumulate;fill-opacity:1"
       d="m 241.40953,229.35784 0,-5.98214 6.07143,0 6.07143,0 0,5.98214 0,5.98215 -6.07143,0 -6.07143,0 0,-5.98215 z"
       id="path5506"
       inkscape:connector-curvature="0"
       transform="translate(90.354446,277.19701)" />
    <path
       style="color:#000000;fill:#b90000;fill-opacity:1;fill-rule:nonzero;stroke:none;stroke-width:1;marker:none;visibility:visible;display:inline;overflow:visible;enable-background:accumulate"
       d="m 241.40953,216.14356 0,-5.98215 6.07143,0 6.07143,0 0,5.98215 0,5.98214 -6.07143,0 -6.07143,0 0,-5.98214 z"
       id="path5508"
       inkscape:connector-curvature="0"
       transform="translate(90.354446,277.19701)" />
    <path
       style="color:#000000;fill:#b90000;fill-opacity:1;fill-rule:nonzero;stroke:none;stroke-width:1;marker:none;visibility:visible;display:inline;overflow:visible;enable-background:accumulate"
       d="m 241.40953,202.83999 0,-6.07143 6.07143,0 6.07143,0 0,6.07143 0,6.07142 -6.07143,0 -6.07143,0 0,-6.07142 z"
       id="path5510"
       inkscape:connector-curvature="0"
       transform="translate(90.354446,277.19701)" />
    <path
       style="color:#000000;fill:#b90000;fill-opacity:1;fill-rule:nonzero;stroke:none;stroke-width:1;marker:none;visibility:visible;display:inline;overflow:visible;enable-background:accumulate"
       d="m 228.19525,202.83999 0,-6.07143 5.98214,0 5.98214,0 0,6.07143 0,6.07142 -5.98214,0 -5.98214,0 0,-6.07142 z"
       id="path5512"
       inkscape:connector-curvature="0"
       transform="translate(90.354446,277.19701)" />
    <path
       style="color:#000000;fill:#b90000;fill-opacity:1;fill-rule:nonzero;stroke:none;stroke-width:1;marker:none;visibility:visible;display:inline;overflow:visible;enable-background:accumulate"
       d="m 228.19525,216.14356 0,-5.98215 5.98214,0 5.98214,0 0,5.98215 0,5.98214 -5.98214,0 -5.98214,0 0,-5.98214 z"
       id="path5514"
       inkscape:connector-curvature="0"
       transform="translate(90.354446,277.19701)" />
    <path
       style="color:#000000;fill:#b90000;fill-opacity:1;fill-rule:nonzero;stroke:none;stroke-width:1;marker:none;visibility:visible;display:inline;overflow:visible;enable-background:accumulate"
       d="m 228.19525,232.21957 0,-3.12041 0.53746,-0.27794 c 0.52511,-0.27154 0.53123,-0.28996 0.26645,-0.80201 -0.17641,-0.34113 -0.36403,-0.48839 -0.53747,-0.42183 -0.22717,0.0872 -0.26644,-0.21642 -0.26644,-2.05972 l 0,-2.16196 5.98214,0 5.98214,0 0,5.98214 0,5.98215 -5.98214,0 -5.98214,0 0,-3.12042 z m 3.09995,2.0279 c 0.39002,-0.1777 0.41847,-0.25623 0.2588,-0.71428 -0.19911,-0.57115 -0.29095,-0.60296 -0.91717,-0.31763 -0.38966,0.17754 -0.41308,0.24808 -0.23711,0.71428 0.21867,0.57932 0.27629,0.59976 0.89548,0.31763 l 0,0 z m -0.77853,-2.93441 c 0,-0.20378 -0.43699,-0.97307 -0.55275,-0.97307 -0.0761,0 -0.34699,0.0794 -0.60208,0.17633 -0.4499,0.17105 -0.4556,0.19217 -0.19038,0.70506 0.25251,0.48829 0.3144,0.51444 0.80932,0.34191 0.29474,-0.10275 0.53589,-0.21535 0.53589,-0.25023 z"
       id="path5516"
       inkscape:connector-curvature="0"
       transform="translate(90.354446,277.19701)" />
    <path
       style="color:#000000;fill:#b90000;fill-opacity:1;fill-rule:nonzero;stroke:none;stroke-width:1;marker:none;visibility:visible;display:inline;overflow:visible;enable-background:accumulate"
       d="m 241.39754,242.59054 0,-5.93464 6.06091,0 6.06092,0 0,5.93464 0,5.93465 -6.06092,0 -6.06091,0 0,-5.93465 z"
       id="path5518"
       inkscape:connector-curvature="0"
       transform="translate(90.354446,277.19701)" />
    <path
       style="color:#000000;fill:#b90000;fill-opacity:1;fill-rule:nonzero;stroke:none;stroke-width:1;marker:none;visibility:visible;display:inline;overflow:visible;enable-background:accumulate"
       d="m 241.39754,260.09368 c 0,-1.52375 0.0513,-1.7459 0.31864,-1.38027 0.26962,0.36874 0.38829,0.38485 0.77136,0.10474 0.64251,-0.46981 0.29912,-1.28808 -0.46054,-1.09741 l -0.56477,0.14175 -0.0369,-4.03731 -0.0368,-4.0373 6.06542,0 6.06542,0 0,6.06092 0,6.06091 -5.09903,0 c -4.19732,0 -5.02108,-0.057 -4.65822,-0.32233 0.54226,-0.39651 0.30432,-1.1929 -0.35639,-1.1929 -0.63064,0 -0.82391,0.39178 -0.49576,1.00494 0.2501,0.4673 0.19789,0.51029 -0.61967,0.51029 l -0.89276,0 0,-1.81603 z"
       id="path5520"
       inkscape:connector-curvature="0"
       transform="translate(90.354446,277.19701)" />
    <path
       style="color:#000000;fill:#b90000;fill-opacity:1;fill-rule:nonzero;stroke:none;stroke-width:1;marker:none;visibility:visible;display:inline;overflow:visible;enable-background:accumulate"
       d="m 241.39754,269.10705 0,-5.93465 1.38103,0 c 0.99817,0 1.34896,0.0875 1.26534,0.31567 -0.20326,0.55463 0.27914,1.01437 0.86818,0.82741 0.39769,-0.12622 0.50514,-0.30608 0.39332,-0.65837 -0.14746,-0.46461 0.0197,-0.48471 4.03006,-0.48471 l 4.1839,0 0,2.82117 c 0,2.27074 -0.0816,2.91128 -0.41795,3.283 -0.38891,0.42973 -0.38891,0.49392 0,0.92365 0.32126,0.35499 0.41795,0.96839 0.41795,2.65165 l 0,2.18982 -1.79869,0 c -1.59609,0 -1.76209,-0.0441 -1.47379,-0.39148 0.26802,-0.32294 0.25354,-0.46284 -0.0827,-0.79905 -0.33622,-0.33622 -0.47612,-0.35069 -0.79906,-0.0827 -0.21531,0.1787 -0.39148,0.53827 -0.39148,0.79906 0,0.44277 -0.25071,0.47415 -3.78807,0.47415 l -3.78807,0 0,-5.93464 z m 7.31743,3.41257 c 0.50074,-0.26799 0.4322,-1.26914 -0.0864,-1.26213 -0.61296,0.008 -0.97014,0.44278 -0.8013,0.97476 0.19418,0.61181 0.24858,0.62942 0.88772,0.28737 l 0,0 z m 3.51511,-0.20616 c 0.18838,-0.35198 0.12293,-0.53082 -0.28824,-0.7876 -0.45803,-0.28604 -0.57782,-0.2695 -0.8619,0.119 -0.24339,0.33284 -0.2567,0.53945 -0.0507,0.7876 0.39059,0.47063 0.91304,0.41886 1.20089,-0.119 l 0,0 z m -4.30923,-2.71108 c 0.13326,-0.11679 -0.46122,-1.12708 -0.66069,-1.12281 -0.52217,0.0112 -0.85229,0.48106 -0.69225,0.98531 0.13374,0.42139 0.29959,0.5085 0.7215,0.37896 0.30132,-0.0925 0.58547,-0.20116 0.63144,-0.24146 z m -1.50961,-2.61366 c 0.53845,-0.3412 -0.0682,-1.28216 -0.71725,-1.11244 -0.54032,0.1413 -0.60004,0.29894 -0.35509,0.93727 0.16969,0.44221 0.55229,0.50471 1.07234,0.17517 l 0,0 z"
       id="path5522"
       inkscape:connector-curvature="0"
       transform="translate(90.354446,277.19701)" />
    <path
       style="color:#000000;fill:#b90000;fill-opacity:1;fill-rule:nonzero;stroke:none;stroke-width:1;marker:none;visibility:visible;display:inline;overflow:visible;enable-background:accumulate"
       d="m 254.78206,255.8488 0,-6.06092 5.93464,0 5.93465,0 0,1.59099 c 0,0.90072 -0.13148,1.72247 -0.30305,1.89404 -0.2357,0.2357 -0.2357,0.37039 0,0.60609 0.2093,0.20929 0.30305,1.49839 0.30305,4.16688 l 0,3.86383 -5.93465,0 -5.93464,0 0,-6.06091 z m 7.07106,4.67195 c 0,-0.17433 -0.17401,-0.46138 -0.3867,-0.63789 -0.31983,-0.26544 -0.4475,-0.23803 -0.73833,0.15848 -0.30337,0.4136 -0.29702,0.53996 0.0462,0.92046 0.30172,0.33447 0.48015,0.37277 0.73834,0.15848 0.18726,-0.15541 0.34047,-0.4252 0.34047,-0.59953 z m 1.77829,-2.03298 c 0.26802,-0.32294 0.25354,-0.46284 -0.0827,-0.79905 -0.33622,-0.33622 -0.47612,-0.35069 -0.79906,-0.0827 -0.472,0.39173 -0.50897,0.93118 -0.0758,1.10596 0.51749,0.20881 0.61761,0.18537 0.95754,-0.22423 z m 2.00411,-2.37583 c 0.21613,-0.40384 0.16356,-0.54857 -0.28679,-0.78959 -0.45732,-0.24475 -0.60799,-0.21777 -0.88282,0.15808 -0.24451,0.33439 -0.2582,0.54138 -0.0522,0.78959 0.3998,0.48173 0.91508,0.41506 1.22181,-0.15808 l 0,0 z"
       id="path5524"
       inkscape:connector-curvature="0"
       transform="translate(90.354446,277.19701)" />
    <path
       style="color:#000000;fill:#b90000;fill-opacity:1;fill-rule:nonzero;stroke:none;stroke-width:1;marker:none;visibility:visible;display:inline;overflow:visible;enable-background:accumulate"
       d="m 254.78206,242.59054 0,-5.93464 5.93464,0 5.93465,0 0,5.93464 0,5.93465 -5.93465,0 -5.93464,0 0,-5.93465 z"
       id="path5526"
       inkscape:connector-curvature="0"
       transform="translate(90.354446,277.19701)" />
    <path
       style="color:#000000;fill:#b90000;fill-opacity:1;fill-rule:nonzero;stroke:none;stroke-width:1;marker:none;visibility:visible;display:inline;overflow:visible;enable-background:accumulate"
       d="m 267.91404,242.59054 0,-5.93464 6.09184,0 c 5.46073,0 6.05834,0.0403 5.76857,0.38951 -0.24485,0.29503 -0.25235,0.46042 -0.0309,0.68185 0.20269,0.20269 0.29234,1.90319 0.29234,5.54514 l 0,5.25279 -4.30975,0 c -2.48788,0 -4.51624,-0.11051 -4.79822,-0.26142 -0.33672,-0.18021 -0.48848,-0.18021 -0.48848,0 0,0.14535 -0.56064,0.26142 -1.26269,0.26142 l -1.26269,0 0,-5.93465 z m 5.25915,4.39627 c 0.28362,-0.45415 0.26568,-0.57519 -0.12794,-0.86301 -0.78376,-0.5731 -1.48287,0.39288 -0.78755,1.08819 0.4148,0.41481 0.53415,0.38545 0.91549,-0.22518 l 0,0 z m 1.82415,-3.10732 c -0.50629,-0.50628 -0.51379,-0.50642 -0.87352,-0.0159 -0.31777,0.43327 -0.31309,0.5499 0.0377,0.93873 0.3768,0.41768 0.42854,0.41863 0.87352,0.0159 0.46169,-0.41782 0.46079,-0.44027 -0.0377,-0.93873 l 0,0 z m 2.01859,-1.55416 c 0.26802,-0.32294 0.25354,-0.46284 -0.0827,-0.79905 -0.33622,-0.33622 -0.47612,-0.35069 -0.79906,-0.0827 -0.472,0.39173 -0.50897,0.93118 -0.0758,1.10596 0.51749,0.20881 0.61761,0.18537 0.95754,-0.22423 l 0,0 z m 2.03247,-2.2875 c 0.28638,-0.34506 0.26479,-0.45898 -0.14362,-0.75761 -0.63339,-0.46315 -0.82203,-0.44381 -1.12105,0.11491 -0.46449,0.86791 0.62025,1.41918 1.26467,0.6427 l 0,0 z"
       id="path5528"
       inkscape:connector-curvature="0"
       transform="translate(90.354446,277.19701)" />
    <path
       style="color:#000000;fill:#b90000;fill-opacity:1;fill-rule:nonzero;stroke:none;stroke-width:1;marker:none;visibility:visible;display:inline;overflow:visible;enable-background:accumulate"
       d="m 267.91404,229.33229 0,-6.06091 6.06091,0 6.06092,0 0,6.06091 0,6.06092 -6.06092,0 -6.06091,0 0,-6.06092 z"
       id="path5530"
       inkscape:connector-curvature="0"
       transform="translate(90.354446,277.19701)" />
    <path
       style="color:#000000;fill:#b90000;fill-opacity:1;fill-rule:nonzero;stroke:none;stroke-width:1;marker:none;visibility:visible;display:inline;overflow:visible;enable-background:accumulate"
       d="m 281.29856,216.20031 0,-6.06092 5.94429,0 5.94429,0 -0.0331,6.06092 -0.0331,6.06091 -5.91123,0 -5.91123,0 0,-6.06091 z"
       id="path5532"
       inkscape:connector-curvature="0"
       transform="translate(90.354446,277.19701)" />
    <path
       style="color:#000000;fill:#b90000;fill-opacity:1;fill-rule:nonzero;stroke:none;stroke-width:1;marker:none;visibility:visible;display:inline;overflow:visible;enable-background:accumulate"
       d="m 254.78206,229.33229 0,-6.06091 5.93464,0 5.93465,0 0,6.06091 0,6.06092 -5.93465,0 -5.93464,0 0,-6.06092 z"
       id="path5534"
       inkscape:connector-curvature="0"
       transform="translate(90.354446,277.19701)" />
    <path
       style="color:#000000;fill:#b90000;fill-opacity:1;fill-rule:nonzero;stroke:none;stroke-width:1;marker:none;visibility:visible;display:inline;overflow:visible;enable-background:accumulate"
       d="m 254.78206,216.20031 0,-6.06092 5.93464,0 5.93465,0 0,6.06092 0,6.06091 -5.93465,0 -5.93464,0 0,-6.06091 z"
       id="path5536"
       inkscape:connector-curvature="0"
       transform="translate(90.354446,277.19701)" />
    <path
       style="color:#000000;fill:#b90000;fill-opacity:1;fill-rule:nonzero;stroke:none;stroke-width:1;marker:none;visibility:visible;display:inline;overflow:visible;enable-background:accumulate"
       d="m 267.91404,216.20031 0,-6.06092 6.06091,0 6.06092,0 0,6.06092 0,6.06091 -6.06092,0 -6.06091,0 0,-6.06091 z"
       id="path5538"
       inkscape:connector-curvature="0"
       transform="translate(90.354446,277.19701)" />
    <path
       style="color:#000000;fill:#b90000;fill-opacity:1;fill-rule:nonzero;stroke:none;stroke-width:1;marker:none;visibility:visible;display:inline;overflow:visible;enable-background:accumulate"
       d="m 254.78206,202.94206 0,-5.93465 5.93464,0 5.93465,0 0,5.93465 0,5.93464 -5.93465,0 -5.93464,0 0,-5.93464 z"
       id="path5540"
       inkscape:connector-curvature="0"
       transform="translate(90.354446,277.19701)" />
    <path
       style="color:#000000;fill:#b90000;fill-opacity:1;fill-rule:nonzero;stroke:none;stroke-width:1;marker:none;visibility:visible;display:inline;overflow:visible;enable-background:accumulate"
       d="m 267.91404,202.94206 0,-5.93465 6.06091,0 6.06092,0 0,5.93465 0,5.93464 -6.06092,0 -6.06091,0 0,-5.93464 z"
       id="path5542"
       inkscape:connector-curvature="0"
       transform="translate(90.354446,277.19701)" />
    <path
       style="color:#000000;fill:#b90000;fill-opacity:1;fill-rule:nonzero;stroke:none;stroke-width:1;marker:none;visibility:visible;display:inline;overflow:visible;enable-background:accumulate"
       d="m 281.29856,202.94206 0,-5.93465 5.93465,0 5.93464,0 0,5.93465 0,5.93464 -5.93464,0 -5.93465,0 0,-5.93464 z"
       id="path5544"
       inkscape:connector-curvature="0"
       transform="translate(90.354446,277.19701)" />
    <path
       style="color:#000000;fill:#b90000;fill-opacity:1;fill-rule:nonzero;stroke:none;stroke-width:1;marker:none;visibility:visible;display:inline;overflow:visible;enable-background:accumulate"
       d="m 294.43054,202.94206 0,-5.93465 6.06122,0 6.06123,0 -0.0155,5.93465 -0.0155,5.93464 -6.04568,0 -6.04569,0 0,-5.93464 z m 11.36422,4.79822 c 0.25082,-0.30222 0.25082,-0.4554 0,-0.75761 -0.43187,-0.52037 -0.9411,-0.47463 -1.25547,0.11278 -0.20671,0.38624 -0.16803,0.54696 0.18051,0.74994 0.59656,0.34741 0.70849,0.33646 1.07496,-0.10511 z"
       id="path5546"
       inkscape:connector-curvature="0"
       transform="translate(90.354446,277.19701)" />
    <path
       style="color:#000000;fill:#b90000;fill-opacity:1;fill-rule:nonzero;stroke:none;stroke-width:1;marker:none;visibility:visible;display:inline;overflow:visible;enable-background:accumulate"
       d="m 307.56253,189.6838 0,-6.06091 6.06091,0 6.06092,0 0,6.06091 0,6.06092 -1.96412,0 c -1.41484,0 -2.13013,-0.11628 -2.55776,-0.41581 -0.55118,-0.38606 -0.61031,-0.38606 -0.82636,0 -0.19736,0.35267 -0.7293,0.41581 -3.50315,0.41581 l -3.27044,0 0,-6.06092 z m 9.60697,4.15421 c 0.26839,-0.32339 0.2518,-0.46457 -0.0954,-0.81173 -0.39197,-0.39197 -0.44853,-0.39197 -0.8405,0 -0.34715,0.34716 -0.36374,0.48834 -0.0953,0.81173 0.1787,0.21531 0.41072,0.39148 0.5156,0.39148 0.10488,0 0.3369,-0.17617 0.5156,-0.39148 z m 2.00978,-2.26017 c 0.25082,-0.30222 0.25082,-0.4554 0,-0.75761 -0.41105,-0.49529 -0.75504,-0.47886 -1.14518,0.0547 -0.26118,0.35718 -0.24385,0.48915 0.0984,0.74958 0.54229,0.41263 0.67033,0.40692 1.04676,-0.0467 z"
       id="path5548"
       inkscape:connector-curvature="0"
       transform="translate(90.354446,277.19701)" />
    <path
       style="color:#000000;fill:#b90000;fill-opacity:1;fill-rule:nonzero;stroke:none;stroke-width:1;marker:none;visibility:visible;display:inline;overflow:visible;enable-background:accumulate"
       d="m 320.94705,176.42555 0,-5.93464 5.93464,0 5.93465,0 0,2.19708 c 0,1.70884 -0.0673,2.12974 -0.30305,1.89403 -0.16667,-0.16667 -0.43862,-0.30304 -0.60432,-0.30304 -0.49108,0 -0.65844,0.81526 -0.251,1.2227 0.30844,0.30845 0.44524,0.31746 0.76689,0.0505 0.35047,-0.29087 0.39148,0.0487 0.39148,3.24155 l 0,3.56646 -3.02253,0 c -2.4223,0 -2.99675,-0.0672 -2.8927,-0.33835 0.0714,-0.18609 -0.0458,-0.48411 -0.26046,-0.66227 -0.31191,-0.25886 -0.46638,-0.26077 -0.76911,-0.01 -0.20834,0.17291 -0.37881,0.47093 -0.37881,0.66226 0,0.26972 -0.51068,0.34789 -2.27284,0.34789 l -2.27284,0 0,-5.93465 z m 7.77817,3.6113 c 0.42926,-0.42926 0.3789,-0.64875 -0.22272,-0.97072 -0.42743,-0.22875 -0.58886,-0.19512 -0.86301,0.1798 -0.57508,0.78648 0.38835,1.4883 1.08573,0.79092 z m 1.8288,-2.36128 c 0.26839,-0.3234 0.25181,-0.46458 -0.0953,-0.81173 -0.39197,-0.39197 -0.44852,-0.39197 -0.8405,0 -0.34715,0.34715 -0.36374,0.48833 -0.0953,0.81173 0.17869,0.21531 0.41071,0.39148 0.51559,0.39148 0.10488,0 0.3369,-0.17617 0.5156,-0.39148 l 0,0 z"
       id="path5550"
       inkscape:connector-curvature="0"
       transform="translate(90.354446,277.19701)" />
    <path
       style="color:#000000;fill:#b90000;fill-opacity:1;fill-rule:nonzero;stroke:none;stroke-width:1;marker:none;visibility:visible;display:inline;overflow:visible;enable-background:accumulate"
       d="m 334.07903,163.1673 0,-6.06092 1.6415,0 c 0.90282,0 1.6415,0.10599 1.6415,0.23552 0,0.45981 1.07251,0.60043 1.31224,0.17205 0.19348,-0.34574 0.78168,-0.40757 3.87734,-0.40757 l 3.64925,0 0,6.06092 0,6.06092 -6.06091,0 -6.06092,0 0,-6.06092 z m 4.12793,4.50265 c -0.39493,-0.43639 -0.45157,-0.43922 -0.88797,-0.0443 -0.43639,0.39494 -0.43922,0.45158 -0.0443,0.88798 0.39494,0.43639 0.45158,0.43922 0.88798,0.0443 0.43639,-0.39493 0.43922,-0.45157 0.0443,-0.88797 z m 2.04152,-1.6433 c 0.0909,-0.2369 -0.003,-0.58912 -0.21285,-0.79905 -0.30845,-0.30845 -0.44524,-0.31746 -0.76689,-0.0505 -0.68317,0.56697 -0.42142,1.18766 0.52852,1.25327 0.15875,0.011 0.3618,-0.1707 0.45122,-0.40371 l 0,0 z m 1.86126,-2.15224 c 0.42926,-0.42926 0.3789,-0.64875 -0.22272,-0.97073 -0.42743,-0.22875 -0.58886,-0.19511 -0.86301,0.17981 -0.57508,0.78648 0.38835,1.4883 1.08573,0.79092 z m 1.8288,-2.36128 c 0.26839,-0.3234 0.25181,-0.46458 -0.0953,-0.81173 -0.39197,-0.39197 -0.44852,-0.39197 -0.8405,0 -0.34715,0.34715 -0.36374,0.48833 -0.0953,0.81173 0.17869,0.21531 0.41071,0.39148 0.51559,0.39148 0.10488,0 0.3369,-0.17617 0.5156,-0.39148 z m 0.39734,-2.52805 c -0.2113,-0.55064 -1.08654,-0.44006 -1.24267,0.157 -0.0982,0.37563 0.0166,0.57792 0.41248,0.72688 0.61273,0.23054 1.07072,-0.25707 0.83019,-0.88388 z m -2.83399,-0.51039 c 0.21357,-0.55656 0.21149,-0.56177 -0.34119,-0.85755 -0.40272,-0.21553 -0.54814,-0.16436 -0.78369,0.27576 -0.22624,0.42275 -0.2148,0.58756 0.0525,0.75696 0.52004,0.32954 0.90265,0.26704 1.07234,-0.17517 z"
       id="path5552"
       inkscape:connector-curvature="0"
       transform="translate(90.354446,277.19701)" />
    <path
       style="color:#000000;fill:#b90000;fill-opacity:1;fill-rule:nonzero;stroke:none;stroke-width:1;marker:none;visibility:visible;display:inline;overflow:visible;enable-background:accumulate"
       d="m 320.94705,163.1673 0,-6.06092 5.93464,0 5.93465,0 0,6.06092 0,6.06092 -5.93465,0 -5.93464,0 0,-6.06092 z"
       id="path5554"
       inkscape:connector-curvature="0"
       transform="translate(90.354446,277.19701)" />
    <path
       style="color:#000000;fill:#b90000;fill-opacity:1;fill-rule:nonzero;stroke:none;stroke-width:1;marker:none;visibility:visible;display:inline;overflow:visible;enable-background:accumulate"
       d="m 307.56253,151.02887 c 0,-2.9991 0.10405,-5.00926 0.27593,-5.33042 0.19955,-0.37286 0.19955,-0.59196 0,-0.79152 -0.15176,-0.15176 -0.27593,-0.42366 -0.27593,-0.60423 0,-0.26025 1.25621,-0.3283 6.06091,-0.3283 l 6.06092,0 0,5.93465 0,5.93464 -6.06092,0 -6.06091,0 0,-4.81482 z m 11.56595,-1.29509 c 0.0447,-0.2321 -0.15469,-0.54828 -0.44309,-0.70263 -0.44737,-0.23943 -0.55617,-0.19558 -0.74106,0.29863 -0.14053,0.37567 -0.11692,0.64573 0.0672,0.76835 0.4407,0.29355 1.0271,0.10227 1.11696,-0.36435 z m -2.88041,-0.85554 c 0.24495,-0.63833 0.18523,-0.79597 -0.35509,-0.93727 -0.64901,-0.16972 -1.2557,0.77124 -0.71725,1.11244 0.52005,0.32954 0.90265,0.26704 1.07234,-0.17517 l 0,0 z m -2.74089,-1.14729 c 0.10685,-0.33667 0.0426,-0.61752 -0.17239,-0.75375 -0.45293,-0.28699 -0.97404,-0.28325 -0.97404,0.007 0,0.12754 -0.0652,0.40171 -0.14481,0.60926 -0.12811,0.33386 0.1229,0.50449 0.94854,0.6448 0.0948,0.0161 0.24903,-0.21218 0.3427,-0.50731 l 0,0 z m -2.82688,-1.03273 c 0.23017,-0.88016 -0.88796,-1.36121 -1.21046,-0.52077 -0.10467,0.27277 -0.002,0.55562 0.27378,0.75761 0.61132,0.44701 0.76823,0.40733 0.93668,-0.23684 z"
       id="path5556"
       inkscape:connector-curvature="0"
       transform="translate(90.354446,277.19701)" />
    <path
       style="color:#000000;fill:#b90000;fill-opacity:1;fill-rule:nonzero;stroke:none;stroke-width:1;marker:none;visibility:visible;display:inline;overflow:visible;enable-background:accumulate"
       d="m 294.43054,149.90905 0,-5.93465 4.67196,0 c 3.82501,0 4.67196,0.0638 4.67196,0.35179 0,0.3229 0.51023,0.65836 1.00135,0.65836 0.11133,0 0.26186,-0.22728 0.33451,-0.50507 0.0892,-0.3413 0.34446,-0.50508 0.78707,-0.50508 l 0.65498,0 0,5.93465 0,5.93464 -6.06091,0 -6.06092,0 0,-5.93464 z"
       id="path5558"
       inkscape:connector-curvature="0"
       transform="translate(90.354446,277.19701)" />
    <path
       style="color:#000000;fill:#b90000;fill-opacity:1;fill-rule:nonzero;stroke:none;stroke-width:1;marker:none;visibility:visible;display:inline;overflow:visible;enable-background:accumulate"
       d="m 281.29856,149.90905 0,-5.93465 5.93465,0 5.93464,0 0,5.93465 0,5.93464 -5.93464,0 -5.93465,0 0,-5.93464 z"
       id="path5560"
       inkscape:connector-curvature="0"
       transform="translate(90.354446,277.19701)" />
    <path
       style="color:#000000;fill:#b90000;fill-opacity:1;fill-rule:nonzero;stroke:none;stroke-width:1;marker:none;visibility:visible;display:inline;overflow:visible;enable-background:accumulate"
       d="m 267.91404,136.99431 c 0,-6.34663 0.009,-6.37964 1.68904,-6.3964 0.72316,-0.007 0.80032,0.0627 0.75762,0.68619 -0.0366,0.53362 0.0763,0.71196 0.48774,0.77087 0.78417,0.11227 1.00894,-0.9124 0.26584,-1.21194 -0.34451,-0.13887 1.21291,-0.22709 4.1865,-0.23714 l 4.73509,-0.016 0,1.79514 c 0,1.78872 -0.002,1.79458 -0.63135,1.63669 -0.34724,-0.0872 -0.63134,-0.0519 -0.63134,0.0782 0,0.13018 -0.065,0.40618 -0.14453,0.61334 -0.19525,0.5088 0.88176,0.86056 1.18234,0.38617 0.12657,-0.19975 0.21876,1.31643 0.22101,3.63478 l 0.004,3.97747 -6.06092,0 -6.06091,0 0,-5.7174 z m 9.09137,-2.84824 c 0,-0.12754 0.065,-0.40138 0.14454,-0.60853 0.19524,-0.5088 -0.88176,-0.86056 -1.18235,-0.38617 -0.34234,0.54028 -0.26254,0.92717 0.21706,1.0525 0.72959,0.19066 0.82075,0.18424 0.82075,-0.0578 l 0,0 z m -2.76073,-1.31546 c 0.29515,-0.55149 0.005,-0.96494 -0.68465,-0.97417 -0.52006,-0.007 -0.6506,0.8463 -0.1819,1.18902 0.5606,0.40992 0.52783,0.41805 0.86655,-0.21485 z"
       id="path5562"
       inkscape:connector-curvature="0"
       transform="translate(90.354446,277.19701)" />
    <path
       style="color:#000000;fill:#b90000;fill-opacity:1;fill-rule:nonzero;stroke:none;stroke-width:1;marker:none;visibility:visible;display:inline;overflow:visible;enable-background:accumulate"
       d="m 267.91404,149.90905 0,-5.93465 6.06091,0 6.06092,0 0,5.93465 0,5.93464 -6.06092,0 -6.06091,0 0,-5.93464 z"
       id="path5564"
       inkscape:connector-curvature="0"
       transform="translate(90.354446,277.19701)" />
    <path
       style="color:#000000;fill:#b90000;fill-opacity:1;fill-rule:nonzero;stroke:none;stroke-width:1;marker:none;visibility:visible;display:inline;overflow:visible;enable-background:accumulate"
       d="m 254.78206,136.6508 0,-6.06092 5.93464,0 5.93465,0 0,6.06092 0,6.06091 -5.93465,0 -5.93464,0 0,-6.06091 z"
       id="path5566"
       inkscape:connector-curvature="0"
       transform="translate(90.354446,277.19701)" />
    <path
       style="color:#000000;fill:#b90000;fill-opacity:1;fill-rule:nonzero;stroke:none;stroke-width:1;marker:none;visibility:visible;display:inline;overflow:visible;enable-background:accumulate"
       d="m 254.78206,149.90905 0,-5.93465 5.93464,0 5.93465,0 0,5.93465 0,5.93464 -5.93465,0 -5.93464,0 0,-5.93464 z"
       id="path5568"
       inkscape:connector-curvature="0"
       transform="translate(90.354446,277.19701)" />
    <path
       style="color:#000000;fill:#b90000;fill-opacity:1;fill-rule:nonzero;stroke:none;stroke-width:1;marker:none;visibility:visible;display:inline;overflow:visible;enable-background:accumulate"
       d="m 254.78206,163.1673 0,-6.06092 5.93464,0 5.93465,0 0,6.06092 0,6.06092 -5.93465,0 -5.93464,0 0,-6.06092 z"
       id="path5570"
       inkscape:connector-curvature="0"
       transform="translate(90.354446,277.19701)" />
    <path
       style="color:#000000;fill:#b90000;fill-opacity:1;fill-rule:nonzero;stroke:none;stroke-width:1;marker:none;visibility:visible;display:inline;overflow:visible;enable-background:accumulate"
       d="m 267.91404,163.1673 0,-6.06092 6.06091,0 6.06092,0 0,6.06092 0,6.06092 -6.06092,0 -6.06091,0 0,-6.06092 z"
       id="path5572"
       inkscape:connector-curvature="0"
       transform="translate(90.354446,277.19701)" />
    <path
       style="color:#000000;fill:#b90000;fill-opacity:1;fill-rule:nonzero;stroke:none;stroke-width:1;marker:none;visibility:visible;display:inline;overflow:visible;enable-background:accumulate"
       d="m 281.29856,163.1673 0,-6.06092 5.93465,0 5.93464,0 0,6.06092 0,6.06092 -5.93464,0 -5.93465,0 0,-6.06092 z"
       id="path5574"
       inkscape:connector-curvature="0"
       transform="translate(90.354446,277.19701)" />
    <path
       style="color:#000000;fill:#b90000;fill-opacity:1;fill-rule:nonzero;stroke:none;stroke-width:1;marker:none;visibility:visible;display:inline;overflow:visible;enable-background:accumulate"
       d="m 294.43054,163.1673 0,-6.06092 6.06092,0 6.06091,0 0,6.06092 0,6.06092 -6.06091,0 -6.06092,0 0,-6.06092 z"
       id="path5576"
       inkscape:connector-curvature="0"
       transform="translate(90.354446,277.19701)" />
    <path
       style="color:#000000;fill:#b90000;fill-opacity:1;fill-rule:nonzero;stroke:none;stroke-width:1;marker:none;visibility:visible;display:inline;overflow:visible;enable-background:accumulate"
       d="m 294.43054,163.1673 0,-6.06092 6.06092,0 6.06091,0 0,6.06092 0,6.06092 -6.06091,0 -6.06092,0 0,-6.06092 z"
       id="path5578"
       inkscape:connector-curvature="0"
       transform="translate(90.354446,277.19701)" />
    <path
       style="color:#000000;fill:#b90000;fill-opacity:1;fill-rule:nonzero;stroke:none;stroke-width:1;marker:none;visibility:visible;display:inline;overflow:visible;enable-background:accumulate"
       d="m 307.56253,163.1673 0,-6.06092 6.06091,0 6.06092,0 0,6.06092 0,6.06092 -6.06092,0 -6.06091,0 0,-6.06092 z"
       id="path5580"
       inkscape:connector-curvature="0"
       transform="translate(90.354446,277.19701)" />
    <path
       style="color:#000000;fill:#b90000;fill-opacity:1;fill-rule:nonzero;stroke:none;stroke-width:1;marker:none;visibility:visible;display:inline;overflow:visible;enable-background:accumulate"
       d="m 307.56253,176.42555 0,-5.93464 6.06091,0 6.06092,0 0,5.93464 0,5.93465 -6.06092,0 -6.06091,0 0,-5.93465 z"
       id="path5582"
       inkscape:connector-curvature="0"
       transform="translate(90.354446,277.19701)" />
    <path
       style="color:#000000;fill:#b90000;fill-opacity:1;fill-rule:nonzero;stroke:none;stroke-width:1;marker:none;visibility:visible;display:inline;overflow:visible;enable-background:accumulate"
       d="m 294.43054,176.42555 0,-5.93464 6.06092,0 6.06091,0 0,5.93464 0,5.93465 -6.06091,0 -6.06092,0 0,-5.93465 z"
       id="path5584"
       inkscape:connector-curvature="0"
       transform="translate(90.354446,277.19701)" />
    <path
       style="color:#000000;fill:#b90000;fill-opacity:1;fill-rule:nonzero;stroke:none;stroke-width:1;marker:none;visibility:visible;display:inline;overflow:visible;enable-background:accumulate"
       d="m 281.29856,176.42555 0,-5.93464 5.93465,0 5.93464,0 0,5.93464 0,5.93465 -5.93464,0 -5.93465,0 0,-5.93465 z"
       id="path5586"
       inkscape:connector-curvature="0"
       transform="translate(90.354446,277.19701)" />
    <path
       style="color:#000000;fill:#b90000;fill-opacity:1;fill-rule:nonzero;stroke:none;stroke-width:1;marker:none;visibility:visible;display:inline;overflow:visible;enable-background:accumulate"
       d="m 267.91404,176.42555 0,-5.93464 6.06091,0 6.06092,0 0,5.93464 0,5.93465 -6.06092,0 -6.06091,0 0,-5.93465 z"
       id="path5588"
       inkscape:connector-curvature="0"
       transform="translate(90.354446,277.19701)" />
    <path
       style="color:#000000;fill:#b90000;fill-opacity:1;fill-rule:nonzero;stroke:none;stroke-width:1;marker:none;visibility:visible;display:inline;overflow:visible;enable-background:accumulate"
       d="m 254.78206,176.42555 0,-5.93464 5.93464,0 5.93465,0 0,5.93464 0,5.93465 -5.93465,0 -5.93464,0 0,-5.93465 z"
       id="path5590"
       inkscape:connector-curvature="0"
       transform="translate(90.354446,277.19701)" />
    <path
       style="color:#000000;fill:#b90000;fill-opacity:1;fill-rule:nonzero;stroke:none;stroke-width:1;marker:none;visibility:visible;display:inline;overflow:visible;enable-background:accumulate"
       d="m 254.78206,189.6838 0,-6.06091 5.93464,0 5.93465,0 0,6.06091 0,6.06092 -5.93465,0 -5.93464,0 0,-6.06092 z"
       id="path5592"
       inkscape:connector-curvature="0"
       transform="translate(90.354446,277.19701)" />
    <path
       style="color:#000000;fill:#b90000;fill-opacity:1;fill-rule:nonzero;stroke:none;stroke-width:1;marker:none;visibility:visible;display:inline;overflow:visible;enable-background:accumulate"
       d="m 267.91404,189.6838 0,-6.06091 6.06091,0 6.06092,0 0,6.06091 0,6.06092 -6.06092,0 -6.06091,0 0,-6.06092 z"
       id="path5594"
       inkscape:connector-curvature="0"
       transform="translate(90.354446,277.19701)" />
    <path
       style="color:#000000;fill:#b90000;fill-opacity:1;fill-rule:nonzero;stroke:none;stroke-width:1;marker:none;visibility:visible;display:inline;overflow:visible;enable-background:accumulate"
       d="m 281.29856,189.6838 0,-6.06091 5.93465,0 5.93464,0 0,6.06091 0,6.06092 -5.93464,0 -5.93465,0 0,-6.06092 z"
       id="path5596"
       inkscape:connector-curvature="0"
       transform="translate(90.354446,277.19701)" />
    <path
       style="color:#000000;fill:#b90000;fill-opacity:1;fill-rule:nonzero;stroke:none;stroke-width:1;marker:none;visibility:visible;display:inline;overflow:visible;enable-background:accumulate"
       d="m 294.43054,189.6838 0,-6.06091 6.06092,0 6.06091,0 0,6.06091 0,6.06092 -6.06091,0 -6.06092,0 0,-6.06092 z"
       id="path5598"
       inkscape:connector-curvature="0"
       transform="translate(90.354446,277.19701)" />
    <path
       style="color:#000000;fill:#b90000;fill-opacity:1;fill-rule:nonzero;stroke:none;stroke-width:1;marker:none;visibility:visible;display:inline;overflow:visible;enable-background:accumulate"
       d="m 241.39754,136.6508 0,-6.06092 6.06091,0 6.06092,0 0,6.06092 0,6.06091 -6.06092,0 -6.06091,0 0,-6.06091 z"
       id="path5600"
       inkscape:connector-curvature="0"
       transform="translate(90.354446,277.19701)" />
    <path
       style="color:#000000;fill:#b90000;fill-opacity:1;fill-rule:nonzero;stroke:none;stroke-width:1;marker:none;visibility:visible;display:inline;overflow:visible;enable-background:accumulate"
       d="m 244.36486,129.39108 c 1.70147,-0.0437 4.48571,-0.0437 6.18718,0 1.70148,0.0437 0.30936,0.0794 -3.09359,0.0794 -3.40295,0 -4.79507,-0.0358 -3.09359,-0.0794 z"
       id="path5602"
       inkscape:connector-curvature="0"
       transform="translate(90.354446,277.19701)" />
    <path
       style="color:#000000;fill:#b90000;fill-opacity:1;fill-rule:nonzero;stroke:none;stroke-width:1;marker:none;visibility:visible;display:inline;overflow:visible;enable-background:accumulate"
       d="m 228.26555,123.39254 0,-5.93464 2.79283,0 c 1.65312,0 2.73371,0.0956 2.64798,0.23435 -0.27398,0.44332 0.94053,0.61238 1.26005,0.1754 0.24052,-0.32892 0.77986,-0.40975 2.73403,-0.40975 l 2.4344,0 0,0.73059 c 0,0.41646 -0.16287,0.7931 -0.3788,0.87596 -0.20835,0.08 -0.37881,0.37621 -0.37881,0.65836 0,0.28765 0.16641,0.51301 0.37881,0.51301 0.32269,0 0.3788,0.67343 0.3788,4.54568 l 0,4.54569 -5.93464,0 -5.93465,0 0,-5.93465 z m 9.67365,-4.68735 c 0.0982,-0.37562 -0.0166,-0.57791 -0.41249,-0.72688 -0.61272,-0.23053 -1.07072,0.25708 -0.83019,0.88389 0.2113,0.55063 1.08654,0.44005 1.24268,-0.15701 z"
       id="path5604"
       inkscape:connector-curvature="0"
       transform="translate(90.354446,277.19701)" />
    <path
       style="color:#000000;fill:#b90000;fill-opacity:1;fill-rule:nonzero;stroke:none;stroke-width:1;marker:none;visibility:visible;display:inline;overflow:visible;enable-background:accumulate"
       d="m 214.88103,123.39254 0,-5.93464 6.06092,0 6.06091,0 0,5.93464 0,5.93465 -6.06091,0 -6.06092,0 0,-5.93465 z"
       id="path5606"
       inkscape:connector-curvature="0"
       transform="translate(90.354446,277.19701)" />
    <path
       style="color:#000000;fill:#b90000;fill-opacity:1;fill-rule:nonzero;stroke:none;stroke-width:1;marker:none;visibility:visible;display:inline;overflow:visible;enable-background:accumulate"
       d="m 201.74905,123.39254 0,-5.93464 5.93464,0 5.93465,0 0,5.93464 0,5.93465 -5.93465,0 -5.93464,0 0,-5.93465 z"
       id="path5608"
       inkscape:connector-curvature="0"
       transform="translate(90.354446,277.19701)" />
    <path
       style="color:#000000;fill:#b90000;fill-opacity:1;fill-rule:nonzero;stroke:none;stroke-width:1;marker:none;visibility:visible;display:inline;overflow:visible;enable-background:accumulate"
       d="m 201.74905,110.13429 0,-6.06091 5.93464,0 5.93465,0 0,6.06091 0,6.06092 -5.93465,0 -5.93464,0 0,-6.06092 z m 10.93634,-1.02555 c 0.0982,-0.37562 -0.0166,-0.57791 -0.41249,-0.72687 -0.61273,-0.23054 -1.07072,0.25707 -0.83019,0.88388 0.2113,0.55064 1.08654,0.44006 1.24268,-0.15701 l 0,0 z m -2.84355,-1.01638 c 0.33262,-0.6215 0.27906,-0.70294 -0.5219,-0.79368 -0.69163,-0.0784 -1.03359,0.73433 -0.46154,1.09685 0.51168,0.32426 0.67452,0.27406 0.98344,-0.30317 z m -2.91576,-1.26211 c 0,-0.44054 -0.13953,-0.6103 -0.50162,-0.6103 -0.59259,0 -0.84326,0.84913 -0.34398,1.16519 0.52244,0.33072 0.8456,0.11866 0.8456,-0.55489 z m -2.74886,-1.38325 c -0.2113,-0.55064 -1.08654,-0.44006 -1.24268,0.157 -0.0982,0.37562 0.0166,0.57791 0.41249,0.72688 0.61272,0.23053 1.07072,-0.25708 0.83019,-0.88388 z"
       id="path5610"
       inkscape:connector-curvature="0"
       transform="translate(90.354446,277.19701)" />
    <path
       style="color:#000000;fill:#b90000;fill-opacity:1;fill-rule:nonzero;stroke:none;stroke-width:1;marker:none;visibility:visible;display:inline;overflow:visible;enable-background:accumulate"
       d="m 188.36453,110.12622 0,-6.06899 5.9569,0.0356 c 5.70918,0.0341 5.95172,0.0554 5.83202,0.51314 -0.0687,0.26267 -0.0219,0.47758 0.10401,0.47758 0.1299,0 0.2289,2.40288 0.2289,5.55584 l 0,5.55584 -6.06092,0 -6.06091,0 0,-6.06899 z"
       id="path5612"
       inkscape:connector-curvature="0"
       transform="translate(90.354446,277.19701)" />
    <path
       style="color:#000000;fill:#b90000;fill-opacity:1;fill-rule:nonzero;stroke:none;stroke-width:1;marker:none;visibility:visible;display:inline;overflow:visible;enable-background:accumulate"
       d="m 175.23254,99.304605 c 0,-3.293694 0.0306,-3.514081 0.50508,-3.63816 0.66284,-0.173336 0.66284,-1.105412 0,-1.315787 -0.43612,-0.138419 -0.50508,-0.382099 -0.50508,-1.784785 l 0,-1.62448 5.93465,0 5.93465,0 0,3.929245 c 0,2.818607 -0.0794,3.880196 -0.28078,3.755718 -0.29202,-0.180478 -0.71879,0.302576 -0.72551,0.821181 -0.002,0.16426 0.22342,0.370792 0.50121,0.45896 0.42342,0.134393 0.50508,0.382103 0.50508,1.532243 l 0,1.37195 -5.93465,0 -5.93465,0 0,-3.506085 z m 9.3611,-0.819184 c 0.29673,-0.554432 0.004,-0.965125 -0.69465,-0.97417 -0.45953,-0.0059 -0.69874,1.031663 -0.29658,1.286485 0.51546,0.32661 0.67643,0.275891 0.99123,-0.312315 l 0,0 z m -2.72526,-1.217854 c 0.13724,-0.524808 -0.57894,-0.953735 -1.07774,-0.645463 -0.41851,0.258657 -0.2885,1.093131 0.18715,1.20114 0.58606,0.133082 0.73474,0.04032 0.89059,-0.555677 l 0,0 z m -2.8456,-1.026923 c 0.22945,-0.428724 0.181,-0.543513 -0.30678,-0.726878 -0.64374,-0.241989 -1.10798,0.228552 -0.86086,0.872536 0.2021,0.526685 0.85115,0.445721 1.16764,-0.145658 z"
       id="path5614"
       inkscape:connector-curvature="0"
       transform="translate(90.354446,277.19701)" />
    <path
       style="color:#000000;fill:#b90000;fill-opacity:1;fill-rule:nonzero;stroke:none;stroke-width:1;marker:none;visibility:visible;display:inline;overflow:visible;enable-background:accumulate"
       d="m 175.23254,113.81714 c 0,-1.55973 0.0994,-2.41119 0.28876,-2.47432 0.21664,-0.0722 0.21664,-0.23099 0,-0.63579 -0.17088,-0.31929 -0.28876,-1.7834 -0.28876,-3.58659 l 0,-3.04706 5.93465,0 5.93465,0 0,6.06091 0,6.06092 -4.49518,0 c -3.21042,0 -4.5836,-0.0884 -4.80453,-0.30935 -0.24411,-0.24411 -0.41382,-0.24411 -0.8047,0 -0.27244,0.17014 -0.78099,0.30935 -1.13011,0.30935 -0.63307,0 -0.63478,-0.006 -0.63478,-2.37807 z m 1.28251,0.34716 c 0.39496,-0.21138 0.43963,-0.36041 0.22705,-0.75762 -0.29206,-0.54572 -0.45917,-0.59224 -0.96837,-0.26959 -0.21501,0.13623 -0.27924,0.41708 -0.17239,0.75374 0.19538,0.61559 0.24609,0.63076 0.91371,0.27347 z"
       id="path5616"
       inkscape:connector-curvature="0"
       transform="translate(90.354446,277.19701)" />
    <path
       style="color:#000000;fill:#b90000;fill-opacity:1;fill-rule:nonzero;stroke:none;stroke-width:1;marker:none;visibility:visible;display:inline;overflow:visible;enable-background:accumulate"
       d="m 188.36453,123.39254 0,-5.93464 6.06091,0 6.06092,0 0,5.93464 0,5.93465 -6.06092,0 -6.06091,0 0,-5.93465 z"
       id="path5618"
       inkscape:connector-curvature="0"
       transform="translate(90.354446,277.19701)" />
    <path
       style="color:#000000;fill:#b90000;fill-opacity:1;fill-rule:nonzero;stroke:none;stroke-width:1;marker:none;visibility:visible;display:inline;overflow:visible;enable-background:accumulate"
       d="m 188.36453,142.22365 c 0,-0.26843 0.22728,-0.56019 0.50507,-0.64836 0.27779,-0.0882 0.50508,-0.257 0.50508,-0.37517 0,-0.50249 -0.33204,-1.01379 -0.65836,-1.01379 -0.28835,0 -0.35179,-0.86528 -0.35179,-4.79823 l 0,-4.79822 6.06091,0 6.06092,0 0,6.06092 0,6.06091 -6.06092,0 c -5.82211,0 -6.06091,-0.0192 -6.06091,-0.48806 z"
       id="path5620"
       inkscape:connector-curvature="0"
       transform="translate(90.354446,277.19701)" />
    <path
       style="color:#000000;fill:#b90000;fill-opacity:1;fill-rule:nonzero;stroke:none;stroke-width:1;marker:none;visibility:visible;display:inline;overflow:visible;enable-background:accumulate"
       d="m 175.23254,123.39254 0,-5.93464 5.93465,0 5.93465,0 0,5.93464 0,5.93465 -5.93465,0 -5.93465,0 0,-5.93465 z m 7.53786,4.44843 c 0.57205,-0.36253 0.23009,-1.1752 -0.46154,-1.09685 -0.80096,0.0907 -0.85451,0.17218 -0.5219,0.79367 0.30893,0.57724 0.47177,0.62744 0.98344,0.30318 l 0,0 z m -1.07748,-2.80693 c 0.18253,0 0.10736,-0.61638 -0.11867,-0.97309 -0.16941,-0.26734 -0.33422,-0.27878 -0.75696,-0.0525 -0.4485,0.24003 -0.49361,0.37664 -0.26529,0.80327 0.16555,0.30934 0.42649,0.45598 0.65521,0.36821 0.20905,-0.0802 0.42762,-0.14586 0.48571,-0.14586 z m -1.24158,-2.72035 c 0.22405,-0.14253 0.22405,-0.31516 0,-0.7231 -0.23476,-0.42744 -0.4115,-0.49178 -0.87357,-0.31802 -0.48778,0.18344 -0.53623,0.29824 -0.30678,0.72696 0.28335,0.52945 0.67719,0.63427 1.18035,0.31416 l 0,0 z m -1.19737,-3.37641 c -0.47598,-0.88937 -1.42781,-0.4376 -1.12017,0.53168 0.13278,0.41834 0.24618,0.45019 0.76362,0.21443 0.49216,-0.22425 0.55994,-0.36607 0.35655,-0.74611 z"
       id="path5622"
       inkscape:connector-curvature="0"
       transform="translate(90.354446,277.19701)" />
    <path
       style="color:#000000;fill:#b90000;fill-opacity:1;fill-rule:nonzero;stroke:none;stroke-width:1;marker:none;visibility:visible;display:inline;overflow:visible;enable-background:accumulate"
       d="m 201.74905,136.6508 0,-6.06092 5.93464,0 5.93465,0 0,6.06092 0,6.06091 -5.93465,0 -5.93464,0 0,-6.06091 z"
       id="path5624"
       inkscape:connector-curvature="0"
       transform="translate(90.354446,277.19701)" />
    <path
       style="color:#000000;fill:#b90000;fill-opacity:1;fill-rule:nonzero;stroke:none;stroke-width:1;marker:none;visibility:visible;display:inline;overflow:visible;enable-background:accumulate"
       d="m 214.88103,136.6508 0,-6.06092 6.06092,0 6.06091,0 0,6.06092 0,6.06091 -6.06091,0 -6.06092,0 0,-6.06091 z"
       id="path5626"
       inkscape:connector-curvature="0"
       transform="translate(90.354446,277.19701)" />
    <path
       style="color:#000000;fill:#b90000;fill-opacity:1;fill-rule:nonzero;stroke:none;stroke-width:1;marker:none;visibility:visible;display:inline;overflow:visible;enable-background:accumulate"
       d="m 228.26555,136.6508 0,-6.06092 5.93465,0 5.93464,0 0,6.06092 0,6.06091 -5.93464,0 -5.93465,0 0,-6.06091 z"
       id="path5628"
       inkscape:connector-curvature="0"
       transform="translate(90.354446,277.19701)" />
    <path
       style="color:#000000;fill:#b90000;fill-opacity:1;fill-rule:nonzero;stroke:none;stroke-width:1;marker:none;visibility:visible;display:inline;overflow:visible;enable-background:accumulate"
       d="m 228.26555,149.90905 0,-5.93465 5.93465,0 5.93464,0 0,5.93465 0,5.93464 -5.93464,0 -5.93465,0 0,-5.93464 z"
       id="path5630"
       inkscape:connector-curvature="0"
       transform="translate(90.354446,277.19701)" />
    <path
       style="color:#000000;fill:#b90000;fill-opacity:1;fill-rule:nonzero;stroke:none;stroke-width:1;marker:none;visibility:visible;display:inline;overflow:visible;enable-background:accumulate"
       d="m 244.36486,155.90759 c 1.70147,-0.0437 4.48571,-0.0437 6.18718,0 1.70148,0.0437 0.30936,0.0794 -3.09359,0.0794 -3.40295,0 -4.79507,-0.0357 -3.09359,-0.0794 z"
       id="path5632"
       inkscape:connector-curvature="0"
       transform="translate(90.354446,277.19701)" />
    <path
       style="color:#000000;fill:#b90000;fill-opacity:1;fill-rule:nonzero;stroke:none;stroke-width:1;marker:none;visibility:visible;display:inline;overflow:visible;enable-background:accumulate"
       d="m 241.39754,149.90905 0,-5.93465 6.06091,0 6.06092,0 0,5.93465 0,5.93464 -6.06092,0 -6.06091,0 0,-5.93464 z"
       id="path5634"
       inkscape:connector-curvature="0"
       transform="translate(90.354446,277.19701)" />
    <path
       style="color:#000000;fill:#b90000;fill-opacity:1;fill-rule:nonzero;stroke:none;stroke-width:1;marker:none;visibility:visible;display:inline;overflow:visible;enable-background:accumulate"
       d="m 241.39754,123.39254 0,-5.93464 6.0603,0 6.0603,0 -0.0137,5.93464 -0.0138,5.93465 -6.04655,0 -6.04654,0 0,-5.93465 z m 10.43869,0.84006 c 0.18015,-0.68887 0.0143,-0.96633 -0.57759,-0.96633 -0.66072,0 -0.89865,0.79639 -0.3564,1.1929 0.60958,0.44574 0.76824,0.40725 0.93399,-0.22657 l 0,0 z m -2.76248,-1.11538 c 0.19564,-0.50985 0.0351,-0.76684 -0.57943,-0.92755 -0.34172,-0.0894 -0.52781,0.0278 -0.6231,0.39215 -0.0747,0.28576 -0.0778,0.61349 -0.007,0.72828 0.22211,0.35937 1.04804,0.22765 1.20941,-0.19288 l 0,0 z m -2.79119,-1.16574 c 0.16832,-0.64365 0.19971,-0.59357 -0.50837,-0.81096 -0.42192,-0.12953 -0.58777,-0.0424 -0.72151,0.37896 -0.11038,0.34779 -0.0488,0.62628 0.16904,0.7643 0.56911,0.36061 0.90735,0.25465 1.06084,-0.3323 z m -2.7774,-1.01215 c 0.14423,-0.55152 -0.17141,-0.9445 -0.76478,-0.95218 -0.45954,-0.006 -0.69875,1.03166 -0.29658,1.28648 0.56958,0.3609 0.90738,0.25451 1.06136,-0.3343 l 0,0 z"
       id="path5636"
       inkscape:connector-curvature="0"
       transform="translate(90.354446,277.19701)" />
    <path
       style="color:#000000;fill:#b90000;fill-opacity:1;fill-rule:nonzero;stroke:none;stroke-width:1;marker:none;visibility:visible;display:inline;overflow:visible;enable-background:accumulate"
       d="m 241.39754,163.1673 0,-6.06092 6.06091,0 6.06092,0 0,6.06092 0,6.06092 -6.06092,0 -6.06091,0 0,-6.06092 z"
       id="path5638"
       inkscape:connector-curvature="0"
       transform="translate(90.354446,277.19701)" />
    <path
       style="color:#000000;fill:#b90000;fill-opacity:1;fill-rule:nonzero;stroke:none;stroke-width:1;marker:none;visibility:visible;display:inline;overflow:visible;enable-background:accumulate"
       d="m 241.39754,176.42555 0,-5.93464 6.06091,0 6.06092,0 0,5.93464 0,5.93465 -6.06092,0 -6.06091,0 0,-5.93465 z"
       id="path5640"
       inkscape:connector-curvature="0"
       transform="translate(90.354446,277.19701)" />
    <path
       style="color:#000000;fill:#b90000;fill-opacity:1;fill-rule:nonzero;stroke:none;stroke-width:1;marker:none;visibility:visible;display:inline;overflow:visible;enable-background:accumulate"
       d="m 241.39754,189.6838 0,-6.06091 6.06091,0 6.06092,0 0,6.06091 0,6.06092 -6.06092,0 -6.06091,0 0,-6.06092 z"
       id="path5642"
       inkscape:connector-curvature="0"
       transform="translate(90.354446,277.19701)" />
    <path
       style="color:#000000;fill:#b90000;fill-opacity:1;fill-rule:nonzero;stroke:none;stroke-width:1;marker:none;visibility:visible;display:inline;overflow:visible;enable-background:accumulate"
       d="m 228.26555,189.6838 0,-6.06091 5.93465,0 5.93464,0 0,6.06091 0,6.06092 -5.93464,0 -5.93465,0 0,-6.06092 z"
       id="path5648"
       inkscape:connector-curvature="0"
       transform="translate(90.354446,277.19701)" />
    <path
       style="color:#000000;fill:#b90000;fill-opacity:1;fill-rule:nonzero;stroke:none;stroke-width:1;marker:none;visibility:visible;display:inline;overflow:visible;enable-background:accumulate"
       d="m 214.88103,189.6838 0,-6.06091 6.06092,0 6.06091,0 0,6.06091 0,6.06092 -6.06091,0 -6.06092,0 0,-6.06092 z"
       id="path5650"
       inkscape:connector-curvature="0"
       transform="translate(90.354446,277.19701)" />
    <path
       style="color:#000000;fill:#b90000;fill-opacity:1;fill-rule:nonzero;stroke:none;stroke-width:1;marker:none;visibility:visible;display:inline;overflow:visible;enable-background:accumulate"
       d="m 214.88103,203.85296 c 0,-4.38298 0.0518,-5.04363 0.40617,-5.17961 0.37319,-0.1432 0.37319,-0.20618 0,-0.77574 -0.22339,-0.34094 -0.40617,-0.68071 -0.40617,-0.75505 0,-0.0743 2.72741,-0.13515 6.06092,-0.13515 l 6.06091,0 0,5.93465 0,5.93464 -3.38822,0 c -2.31762,0 -3.41863,-0.0912 -3.48447,-0.28875 -0.0722,-0.21664 -0.23098,-0.21664 -0.63579,0 -0.29674,0.15881 -1.45614,0.28875 -2.57644,0.28875 l -2.03691,0 0,-5.02374 z m 4.19594,2.89251 c 0.24712,-0.64399 -0.21713,-1.11453 -0.86086,-0.87254 -0.48779,0.18337 -0.53623,0.29816 -0.30679,0.72688 0.3165,0.59138 0.96554,0.67234 1.16765,0.14566 z m -1.16548,-3.03978 c 0,-0.48798 -0.41366,-0.70042 -1.00091,-0.51403 -0.41835,0.13278 -0.45019,0.24618 -0.21443,0.76362 0.22424,0.49217 0.36607,0.55994 0.74611,0.35655 0.25807,-0.13812 0.46923,-0.41088 0.46923,-0.60614 z m -1.49542,-2.1632 c 0.39497,-0.21138 0.43963,-0.36041 0.22705,-0.75761 -0.49055,-0.91661 -1.4463,-0.47855 -1.13003,0.51794 0.18409,0.58001 0.23955,0.59473 0.90298,0.23967 z"
       id="path5652"
       inkscape:connector-curvature="0"
       transform="translate(90.354446,277.19701)" />
    <path
       style="color:#000000;fill:#b90000;fill-opacity:1;fill-rule:nonzero;stroke:none;stroke-width:1;marker:none;visibility:visible;display:inline;overflow:visible;enable-background:accumulate"
       d="m 201.74905,176.91572 c 0,-3.2053 0.0945,-5.38607 0.22975,-5.30248 0.43761,0.27046 1.07718,-0.16825 0.95066,-0.65208 -0.11711,-0.44783 0.13481,-0.47025 5.28295,-0.47025 l 5.40593,0 0,5.93464 0,5.93465 -2.75054,0 c -2.74904,0 -2.75063,-3.6e-4 -2.91476,-0.65431 -0.11409,-0.45454 -0.28296,-0.60874 -0.55311,-0.50507 -0.21389,0.0821 -0.50649,0.14923 -0.65023,0.14923 -0.14373,0 -0.2019,0.22728 -0.12925,0.50507 0.12551,0.47998 0.008,0.50508 -2.36966,0.50508 l -2.50174,0 0,-5.44448 z m 4.76211,2.69422 c 0.34586,-0.21914 0.19213,-1.29035 -0.18518,-1.29035 -0.49176,0 -1.05668,0.67647 -0.90185,1.07995 0.1825,0.47559 0.55478,0.54765 1.08703,0.2104 l 0,0 z m -0.97791,-3.13014 c -0.008,-0.62575 -0.36674,-0.87761 -0.94315,-0.66194 -0.64537,0.24148 -0.67033,0.32381 -0.30507,1.00631 0.21138,0.39497 0.36041,0.43963 0.75762,0.22705 0.27196,-0.14555 0.49273,-0.40269 0.4906,-0.57142 z m -1.25882,-2.56786 c 0,-0.36288 -0.35517,-0.895 -0.59523,-0.89179 -0.6912,0.009 -0.97992,0.42246 -0.68293,0.97738 0.23555,0.44013 0.38097,0.4913 0.78369,0.27577 0.27196,-0.14555 0.49447,-0.30816 0.49447,-0.36136 z"
       id="path5654"
       inkscape:connector-curvature="0"
       transform="translate(90.354446,277.19701)" />
    <path
       style="color:#000000;fill:#b90000;fill-opacity:1;fill-rule:nonzero;stroke:none;stroke-width:1;marker:none;visibility:visible;display:inline;overflow:visible;enable-background:accumulate"
       d="m 214.88103,176.42555 0,-5.93464 6.06092,0 6.06091,0 0,5.93464 0,5.93465 -6.06091,0 -6.06092,0 0,-5.93465 z"
       id="path5656"
       inkscape:connector-curvature="0"
       transform="translate(90.354446,277.19701)" />
    <path
       style="color:#000000;fill:#b90000;fill-opacity:1;fill-rule:nonzero;stroke:none;stroke-width:1;marker:none;visibility:visible;display:inline;overflow:visible;enable-background:accumulate"
       d="m 228.26555,176.42555 0,-5.93464 5.93465,0 5.93464,0 0,5.93464 0,5.93465 -5.93464,0 -5.93465,0 0,-5.93465 z"
       id="path5658"
       inkscape:connector-curvature="0"
       transform="translate(90.354446,277.19701)" />
    <path
       style="color:#000000;fill:#b90000;fill-opacity:1;fill-rule:nonzero;stroke:none;stroke-width:1;marker:none;visibility:visible;display:inline;overflow:visible;enable-background:accumulate"
       d="m 228.26555,163.1673 0,-6.06092 5.93465,0 5.93464,0 0,6.06092 0,6.06092 -5.93464,0 -5.93465,0 0,-6.06092 z"
       id="path5660"
       inkscape:connector-curvature="0"
       transform="translate(90.354446,277.19701)" />
    <path
       style="color:#000000;fill:#b90000;fill-opacity:1;fill-rule:nonzero;stroke:none;stroke-width:1;marker:none;visibility:visible;display:inline;overflow:visible;enable-background:accumulate"
       d="m 214.88103,163.1673 0,-6.06092 6.06092,0 6.06091,0 0,6.06092 0,6.06092 -6.06091,0 -6.06092,0 0,-6.06092 z"
       id="path5662"
       inkscape:connector-curvature="0"
       transform="translate(90.354446,277.19701)" />
    <path
       style="color:#000000;fill:#b90000;fill-opacity:1;fill-rule:nonzero;stroke:none;stroke-width:1;marker:none;visibility:visible;display:inline;overflow:visible;enable-background:accumulate"
       d="m 201.74905,163.1673 0,-6.06092 5.93464,0 5.93465,0 0,6.06092 0,6.06092 -5.93465,0 -5.93464,0 0,-6.06092 z"
       id="path5664"
       inkscape:connector-curvature="0"
       transform="translate(90.354446,277.19701)" />
    <path
       style="color:#000000;fill:#b90000;fill-opacity:1;fill-rule:nonzero;stroke:none;stroke-width:1;marker:none;visibility:visible;display:inline;overflow:visible;enable-background:accumulate"
       d="m 188.36453,149.90905 c 0,-5.68028 0.0207,-5.93465 0.48403,-5.93465 0.26622,0 0.52734,0.12994 0.58028,0.28875 0.0722,0.21665 0.23099,0.21665 0.63579,0 0.35207,-0.18842 2.25639,-0.28875 5.48063,-0.28875 l 4.9411,0 0,5.93465 0,5.93464 -6.06092,0 -6.06091,0 0,-5.93464 z m 7.28093,5.04102 c 0.13325,-0.11679 -0.46123,-1.12709 -0.66069,-1.12281 -0.52218,0.0112 -0.8523,0.48105 -0.69225,0.98531 0.13374,0.42138 0.29959,0.50849 0.7215,0.37896 0.30131,-0.0925 0.58546,-0.20117 0.63144,-0.24146 l 0,0 z m -1.50962,-2.61366 c 0.53845,-0.3412 -0.0682,-1.28216 -0.71725,-1.11244 -0.54031,0.1413 -0.60004,0.29894 -0.35509,0.93727 0.16969,0.44221 0.5523,0.50471 1.07234,0.17517 l 0,0 z m -1.26269,-2.77792 c 0.26734,-0.1694 0.27878,-0.33422 0.0525,-0.75696 -0.23555,-0.44013 -0.38096,-0.4913 -0.78368,-0.27577 -0.55269,0.29579 -0.55476,0.301 -0.34119,0.85756 0.16969,0.44221 0.5523,0.50471 1.07234,0.17517 z m -1.38642,-2.62343 c 0.54225,-0.3965 0.30432,-1.19289 -0.3564,-1.19289 -0.5919,0 -0.75774,0.27745 -0.57759,0.96633 0.16574,0.63381 0.3244,0.6723 0.93399,0.22656 z"
       id="path5666"
       inkscape:connector-curvature="0"
       transform="translate(90.354446,277.19701)" />
    <path
       style="color:#000000;fill:#b90000;fill-opacity:1;fill-rule:nonzero;stroke:none;stroke-width:1;marker:none;visibility:visible;display:inline;overflow:visible;enable-background:accumulate"
       d="m 201.74905,149.90905 0,-5.93465 5.93464,0 5.93465,0 0,5.93465 0,5.93464 -5.93465,0 -5.93464,0 0,-5.93464 z"
       id="path5668"
       inkscape:connector-curvature="0"
       transform="translate(90.354446,277.19701)" />
    <path
       style="color:#000000;fill:#b90000;fill-opacity:1;fill-rule:nonzero;stroke:none;stroke-width:1;marker:none;visibility:visible;display:inline;overflow:visible;enable-background:accumulate"
       d="m 214.88103,149.90905 0,-5.93465 6.06092,0 6.06091,0 0,5.93465 0,5.93464 -6.06091,0 -6.06092,0 0,-5.93464 z"
       id="path5670"
       inkscape:connector-curvature="0"
       transform="translate(90.354446,277.19701)" />
    <path
       style="color:#000000;fill:#b90000;fill-opacity:1;fill-rule:nonzero;stroke:none;stroke-width:1;marker:none;visibility:visible;display:inline;overflow:visible;enable-background:accumulate"
       d="m 281.21893,229.39257 0,-5.96262 4.79822,0 c 4.53159,0 4.82758,0.0294 5.32645,0.52822 l 0.52822,0.52823 0.36998,-0.52823 c 0.20349,-0.29052 0.47718,-0.52822 0.6082,-0.52822 0.14251,0 0.23822,2.38441 0.23822,5.93465 l 0,5.93464 -4.94715,0 c -4.81908,0 -4.95964,-0.0147 -5.42957,-0.56821 l -0.48242,-0.56821 -0.50508,0.59619 -0.50507,0.59619 0,-5.96263 z m 3.51483,3.67252 c 0.17173,-0.32088 0.15874,-0.55725 -0.0416,-0.75762 -0.43205,-0.43205 -0.89642,-0.35407 -1.19314,0.20037 -0.20671,0.38624 -0.16803,0.54696 0.18051,0.74994 0.6245,0.36368 0.77081,0.33693 1.05426,-0.19269 z m 1.73796,-2.1095 c 0.16667,-0.16668 0.30305,-0.43862 0.30305,-0.60433 0,-0.49107 -0.81527,-0.65844 -1.2227,-0.251 -0.30845,0.30845 -0.31746,0.44524 -0.0505,0.76689 0.39076,0.47085 0.5713,0.4873 0.97016,0.0884 z m 2.05011,-2.43619 c 0.17173,-0.32088 0.15874,-0.55724 -0.0416,-0.75761 -0.69279,-0.69279 -1.57042,0.095 -0.94515,0.84841 0.41377,0.49856 0.6847,0.47363 0.98678,-0.0908 l 0,0 z m 1.89242,-2.99572 c -0.39553,-0.62703 -0.70069,-0.64156 -1.06955,-0.0509 -0.28412,0.45495 -0.26619,0.57646 0.12825,0.86911 0.62835,0.46621 1.35374,-0.16431 0.9413,-0.81818 l 0,0 z"
       id="path5672"
       inkscape:connector-curvature="0"
       transform="translate(90.354446,277.19701)" />
    <path
       style="fill:#646464;fill-opacity:1;stroke:#646464;stroke-width:1px;stroke-linecap:butt;stroke-linejoin:miter;stroke-opacity:1"
       d="m 189.09685,552.96556 313.65238,0"
       id="path4792-1-80"
       inkscape:connector-curvature="0"
       sodipodi:nodetypes="cc" />
  </g>
</svg>
